<?xml version="1.0" encoding="UTF-8"?>
<svg xmlns="http://www.w3.org/2000/svg" xmlns:xlink="http://www.w3.org/1999/xlink" width="1000px" height="600px" viewBox="0 0 1000 600" version="1.1">
<defs>
<clipPath id="clip1">
  <path d="M 181 329 L 419 329 L 419 455 L 181 455 Z M 181 329 "/>
</clipPath>
<clipPath id="clip2">
  <path d="M 433.148438 145.5 C 433.148438 145.5 438.332031 192.25 438.332031 285.75 C 437.59375 381.25 358.242188 429.582031 300 455 C 241.757812 429.582031 162.40625 381.25 161.667969 285.75 C 161.667969 192.25 166.851562 145.5 166.851562 145.5 Z M 433.148438 145.5 "/>
</clipPath>
</defs>
<g id="surface1">
<rect x="0" y="0" width="1000" height="600" style="fill:rgb(100%,100%,100%);fill-opacity:1;stroke:none;"/>
<path style=" stroke:none;fill-rule:nonzero;fill:rgb(4.313726%,30.588236%,63.529414%);fill-opacity:1;" d="M 0 200 L 1000 200 L 1000 600 L 0 600 Z M 0 200 "/>
<path style=" stroke:none;fill-rule:nonzero;fill:rgb(93.333334%,10.980392%,14.509805%);fill-opacity:1;" d="M 0 400 L 1000 400 L 1000 600 L 0 600 Z M 0 400 "/>
<path style=" stroke:none;fill-rule:nonzero;fill:rgb(93.333334%,10.980392%,14.509805%);fill-opacity:1;" d="M 433.148438 145.5 C 433.148438 145.5 438.332031 192.25 438.332031 285.75 C 437.59375 381.25 358.242188 429.582031 300 455 C 241.757812 429.582031 162.40625 381.25 161.667969 285.75 C 161.667969 192.25 166.851562 145.5 166.851562 145.5 Z M 433.148438 145.5 "/>
<path style=" stroke:none;fill-rule:nonzero;fill:rgb(100%,100%,100%);fill-opacity:1;" d="M 288.242188 400 L 288.242188 283.082031 C 244.257812 283.082031 231.757812 286.582031 218.609375 290.167969 C 219.847656 278.21875 219.847656 266.195312 218.609375 254.25 C 231.757812 257.832031 244.257812 261.332031 288.242188 261.332031 L 288.242188 228.832031 C 274.351562 228.832031 255.183594 229.332031 233.148438 236.082031 C 234.390625 224.109375 234.390625 212.058594 233.148438 200.082031 C 255.183594 206.75 274.351562 207.25 288.242188 207.25 C 288.242188 197.832031 285 177.582031 280.925781 160.832031 C 293.617188 161.851562 306.382812 161.851562 319.074219 160.832031 C 315 177.582031 311.757812 197.832031 311.757812 207.25 C 325.648438 207.25 344.816406 206.75 366.851562 200.082031 C 365.609375 212.058594 365.609375 224.109375 366.851562 236.082031 C 344.816406 229.332031 325.648438 228.832031 311.757812 228.832031 L 311.757812 261.332031 C 355.742188 261.332031 368.242188 257.832031 381.390625 254.25 C 380.152344 266.195312 380.152344 278.21875 381.390625 290.167969 C 368.242188 286.582031 355.742188 283.082031 311.757812 283.082031 L 311.757812 400 Z M 288.242188 400 "/>
<g clip-path="url(#clip1)" clip-rule="nonzero">
<g clip-path="url(#clip2)" clip-rule="nonzero">
<path style=" stroke:none;fill-rule:nonzero;fill:rgb(4.313726%,30.588236%,63.529414%);fill-opacity:1;" d="M 228.054688 491.917969 C 207.417969 491.910156 189.203125 471.164062 183.171875 440.792969 C 177.136719 410.417969 184.699219 377.542969 201.804688 359.777344 C 218.910156 342.011719 241.550781 343.523438 257.59375 363.5 C 267.847656 341.84375 283.46875 329.214844 300 329.214844 C 316.53125 329.214844 332.152344 341.84375 342.40625 363.5 C 358.449219 343.523438 381.089844 342.011719 398.195312 359.777344 C 415.300781 377.542969 422.863281 410.417969 416.828125 440.792969 C 410.796875 471.164062 392.582031 491.910156 371.945312 491.917969 Z M 228.054688 491.917969 "/>
</g>
</g>
<path style="fill:none;stroke-width:108;stroke-linecap:butt;stroke-linejoin:miter;stroke:rgb(100%,100%,100%);stroke-opacity:1;stroke-miterlimit:4;" d="M 4678.003125 1746 C 4678.003125 1746 4733.985938 2307 4733.985938 3429 C 4726.0125 4575 3869.015625 5154.984375 3240 5460 C 2610.984375 5154.984375 1753.9875 4575 1746.014063 3429 C 1746.014063 2307 1801.996875 1746 1801.996875 1746 Z M 4678.003125 1746 " transform="matrix(0.0925926,0,0,0.0833333,0,0)"/>
</g>
</svg>
