<svg xmlns="http://www.w3.org/2000/svg" width="1000" height="600"><defs><clipPath id="a"><path d="M181 329h238v126H181Zm0 0"/></clipPath><clipPath id="b"><path d="M433 146s5 46 5 140c0 95-80 144-138 169-58-25-138-74-138-169 0-94 5-140 5-140Zm0 0"/></clipPath></defs><path fill="#fff" d="M0 0h1000v600H0z"/><path fill="#0b4ea2" d="M0 200h1000v400H0Zm0 0"/><g fill="#ee1c25"><path d="M0 400h1000v200H0Zm0 0"/><path d="M433 146s5 46 5 140c0 95-80 144-138 169-58-25-138-74-138-169 0-94 5-140 5-140Zm0 0"/></g><path fill="#fff" d="M288 400V283c-44 0-56 4-69 7a174 174 0 0 0 0-36c13 4 25 7 69 7v-32c-14 0-33 0-55 7a174 174 0 0 0 0-36c22 7 41 7 55 7 0-9-3-29-7-46a238 238 0 0 0 38 0c-4 17-7 37-7 46 14 0 33 0 55-7a174 174 0 0 0 0 36c-22-7-41-7-55-7v32c44 0 56-3 69-7a174 174 0 0 0 0 36c-13-3-25-7-69-7v117Zm0 0"/><g clip-path="url(#a)"><g clip-path="url(#b)"><path fill="#0b4ea2" d="M228 492c-21 0-39-21-45-51s2-63 19-81 40-16 56 3c10-21 25-34 42-34s32 13 42 35c16-20 39-22 56-4s25 50 19 81-24 51-45 51zm0 0"/></g></g><path fill="none" stroke="#fff" stroke-width="9.6" d="M433 145s5 47 5 141c0 95-80 144-138 169-58-25-138-74-138-169 0-94 5-141 5-141zm0 0"/></svg>